# xmcd
#
# Track frame offsets: 
#        150
#        12750
#        27545
#        39918
#        52795
#        72113
#        87660
#        98590
#        112603
#        129468
#
# Disc length: 1896 seconds
#
# Revision: 1
# Processed by: cddbd v1.5.1PL0 Copyright (c) Steve Scherf et al.
# Submitted via: ExactAudioCopy v0.95b1
#
DISCID=6e07660a
DTITLE=Gene Watson - Uncharted Mind
DYEAR=1993
DGENRE=Country
TTITLE0=Glass Hearts
TTITLE1=Your Uncharted Mind
TTITLE2=Snake In The House
TTITLE3=Hold That Thought
TTITLE4=You Gave Me A Mountain
TTITLE5=Simple Minded Heart
TTITLE6=He's Back In Texas Again
TTITLE7=Cool Ole Fool
TTITLE8=Mirrors Don't Lie
TTITLE9=Give Her My Best
EXTD=(c)1993 Step One Records\nupc 021167007923\nCatalog: SOR 0079\n
EXTT0=
EXTT1=
EXTT2=
EXTT3=
EXTT4=
EXTT5=
EXTT6=
EXTT7=
EXTT8=
EXTT9=
PLAYORDER=
